<?xml version="1.0" encoding="UTF-8"?>
<svg xmlns="http://www.w3.org/2000/svg" width="300" height="165" viewBox="0 0 300 165">
    <rect width="300" height="165" fill="#1a1b27" rx="4.5"/>
    <text x="25" y="30" font-family="Arial" font-size="14" fill="#70a5fd">Mis Lenguajes Principales</text>
    
        <g transform="translate(25, 50)">
            <text x="0" y="0" font-family="Arial" font-size="12" fill="#38bdae">Dart</text>
            <text x="235" y="0" font-family="Arial" font-size="12" fill="#38bdae">63.3%</text>
            <rect x="0" y="8" width="250" height="8" fill="#1f2133" rx="4"/>
            <rect x="0" y="8" width="158.25" height="8" fill="#00B4AB" rx="4"/>
        </g>
        <g transform="translate(25, 85)">
            <text x="0" y="0" font-family="Arial" font-size="12" fill="#38bdae">Rust</text>
            <text x="235" y="0" font-family="Arial" font-size="12" fill="#38bdae">35.8%</text>
            <rect x="0" y="8" width="250" height="8" fill="#1f2133" rx="4"/>
            <rect x="0" y="8" width="89.5" height="8" fill="#dea584" rx="4"/>
        </g>
        <g transform="translate(25, 120)">
            <text x="0" y="0" font-family="Arial" font-size="12" fill="#38bdae">Java</text>
            <text x="235" y="0" font-family="Arial" font-size="12" fill="#38bdae">0.2%</text>
            <rect x="0" y="8" width="250" height="8" fill="#1f2133" rx="4"/>
            <rect x="0" y="8" width="0.5" height="8" fill="#b07219" rx="4"/>
        </g>
        <g transform="translate(25, 155)">
            <text x="0" y="0" font-family="Arial" font-size="12" fill="#38bdae">Kotlin</text>
            <text x="235" y="0" font-family="Arial" font-size="12" fill="#38bdae">0.6%</text>
            <rect x="0" y="8" width="250" height="8" fill="#1f2133" rx="4"/>
            <rect x="0" y="8" width="1.5" height="8" fill="#A97BFF" rx="4"/>
        </g>
</svg>
